# xmcd
#
# Track frame offsets: 
#        150
#        20025
#        43031
#        58921
#        74811
#        86989
#        102242
#        120232
#        133835
#        146847
#        160328
#        172993
#        188246
#        205186
#
# Disc length: 2963 seconds
#
# Revision: 0
# Processed by: cddbd v1.5.2PL0 Copyright (c) Steve Scherf et al.
# Submitted via: ExactAudioCopyFreeDBPlugin 1.0
#
DISCID=d70b910e
DTITLE=Joe Lindzius - line o' site
DYEAR=2013
DGENRE=Folk/Rock
TTITLE0=I Can Not Take It Anymore
TTITLE1=Don't Wake Me
TTITLE2=Line O' Site
TTITLE3=Post Card
TTITLE4=Too Soon To Hang With Jesus
TTITLE5=Anytime Is Right
TTITLE6=Zone Down
TTITLE7=Sittin' On A Barstool
TTITLE8=It's A Better Day
TTITLE9=Found A Kid
TTITLE10=My Friend
TTITLE11=Hill Song
TTITLE12=Place I'm In
TTITLE13=Park Session
EXTD=
EXTT0=
EXTT1=
EXTT2=
EXTT3=
EXTT4=
EXTT5=
EXTT6=
EXTT7=
EXTT8=
EXTT9=
EXTT10=
EXTT11=
EXTT12=
EXTT13=
PLAYORDER=
